<svg width="20" height="18" viewBox="0 0 20 18" fill="none" xmlns="http://www.w3.org/2000/svg">
<path d="M18.5796 12.7194L14.3959 11.0319C14.2172 10.9602 14.0186 10.9451 13.8299 10.9889C13.6413 11.0326 13.4729 11.1329 13.35 11.2745L11.4972 13.405C8.58949 12.1147 6.24943 9.91225 4.87845 7.17555L7.14212 5.43177C7.29291 5.31634 7.39963 5.15782 7.44614 4.9802C7.49265 4.80258 7.4764 4.61553 7.39986 4.44738L5.60686 0.509807C5.52286 0.328542 5.37428 0.180544 5.18676 0.0913347C4.99923 0.00212529 4.78451 -0.0227045 4.57962 0.0211269L0.694787 0.864892C0.497247 0.907825 0.321001 1.01251 0.194815 1.16186C0.068629 1.3112 -4.55052e-05 1.4964 2.26225e-08 1.68721C2.26225e-08 10.7049 7.76593 18 17.3323 18C17.5351 18.0001 17.732 17.9355 17.8907 17.8168C18.0495 17.698 18.1608 17.5321 18.2064 17.3461L19.1029 13.6898C19.1492 13.496 19.1222 13.2931 19.0267 13.116C18.9312 12.9389 18.7731 12.7987 18.5796 12.7194Z" fill="white"/>
</svg>
